<?xml version="1.0" encoding="UTF-8" standalone="no"?>
<svg
   xmlns:dc="http://purl.org/dc/elements/1.1/"
   xmlns:cc="http://creativecommons.org/ns#"
   xmlns:rdf="http://www.w3.org/1999/02/22-rdf-syntax-ns#"
   xmlns:svg="http://www.w3.org/2000/svg"
   xmlns="http://www.w3.org/2000/svg"
   viewBox="0 0 1702.3993 1702.3993"
   version="1.1"
   id="svg30"
   width="1702.3993"
   height="1702.3993">
  <metadata
     id="metadata36">
    <rdf:RDF>
      <cc:Work
         rdf:about="">
        <dc:format>image/svg+xml</dc:format>
        <dc:type
           rdf:resource="http://purl.org/dc/dcmitype/StillImage" />
        <dc:title></dc:title>
      </cc:Work>
    </rdf:RDF>
  </metadata>
  <defs
     id="defs34" />
  <circle
     style="fill:#000000;fill-opacity:1;stroke-width:12.5597"
     id="path863"
     cx="851.19965"
     cy="851.19965"
     r="851.19965" />
  <g
     id="Layer_2"
     data-name="Layer 2"
     transform="matrix(2.478426,0,0,2.478426,-1204.9759,-1363.9242)"
     style="fill:#ffffff;fill-opacity:1">
    <g
       id="Layer_1-2"
       data-name="Layer 1"
       style="fill:#ffffff;fill-opacity:1">
      <path
         d="m 924.78253,609.48932 h -187.76 c -46.7,170.62 -93.4,325.25 -140.1,466.27998 a 1138.44,1138.44 0 0 0 150.27,34.53 q 7.33,-31 14.68,-62.56 c 43.59,5.88 87.17,9.57 130.75,11.48 q 7.35,33.45 14.69,66.59 c 50.79,1.94 101.57997,1.28 152.36997,-1.27 -44.97,-163.25998 -89.92997,-336.35998 -134.89997,-515.04998 z m -96.48,159.32 c 43,1.49 79.12,35.24 88.84,79.75 -59.23,-1 -118.45,-3.93 -177.68,-9.33 9.72,-41.74 45.8,-71.82 88.84,-70.42 z m 0,199.48 a 88.87,88.87 0 0 1 -42.47,-14.8 q 42.47,4.11 85,6.1 a 78.6,78.6 0 0 1 -42.53,8.7 z m 62.72,-23.64 c -41.81,-1.5 -83.63,-4.31 -125.44,-8.71 a 113,113 0 0 1 -20.94,-33.78 c 55.77,6.07 111.55,9.45 167.33,10.76 a 95.07,95.07 0 0 1 -20.95,31.73 z m 25.9,-47.5 c -59.11,-1.2 -118.21,-4.6 -177.32,-10.92 a 107.22,107.22 0 0 1 -2.78,-24.17 c 0,-2.57 0.12,-5.1 0.31,-7.61 60.75,5.94 121.51,9.09 182.27,10.14 0.18,2.62 0.3,5.25 0.3,7.92 a 109.58,109.58 0 0 1 -2.78,24.64 z"
         id="path26"
         style="fill:#ffffff;fill-opacity:1" />
    </g>
  </g>
</svg>
